<mxfile host="app.diagrams.net" modified="2020-11-25T19:47:16.206Z" agent="5.0 (X11; Linux x86_64) AppleWebKit/537.36 (KHTML, like Gecko) Chrome/87.0.4280.66 Safari/537.36" etag="bezHXzJpprTXAeWz81ui" version="13.10.0" type="github">
  <diagram id="ZXrqioaMke-Y9P5PgKKp" name="Page-1">
    <mxGraphModel dx="1847" dy="1843" grid="1" gridSize="9" guides="1" tooltips="1" connect="1" arrows="1" fold="1" page="1" pageScale="1" pageWidth="850" pageHeight="1100" background="none" math="0" shadow="0">
      <root>
        <mxCell id="0" />
        <mxCell id="1" parent="0" />
        <mxCell id="lydl9CK-ZkPdSqsnDGM0-2" value="&lt;font style=&quot;font-size: 44px&quot;&gt;&lt;span style=&quot;font-size: 44px&quot;&gt;Diagrama de Acoplamento do sistema &lt;br&gt;Freckt&lt;br&gt;&lt;/span&gt;&lt;/font&gt;" style="text;html=1;strokeColor=none;fillColor=none;align=center;verticalAlign=middle;whiteSpace=wrap;rounded=0;fontSize=44;fontStyle=3" parent="1" vertex="1">
          <mxGeometry x="195" y="-957" width="822" height="180" as="geometry" />
        </mxCell>
        <mxCell id="_9A46UjWHR56a_WUUn8J-1" value="" style="group;strokeWidth=2;" parent="1" vertex="1" connectable="0">
          <mxGeometry x="74" y="765" width="1233" height="227" as="geometry" />
        </mxCell>
        <mxCell id="yRQNV8-UyI73t_dO_aJO-6" style="edgeStyle=orthogonalEdgeStyle;rounded=0;orthogonalLoop=1;jettySize=auto;html=1;entryX=0;entryY=0.5;entryDx=0;entryDy=0;strokeWidth=2;" parent="_9A46UjWHR56a_WUUn8J-1" source="q79SqbMXwKp4XREql4Sq-17" target="q79SqbMXwKp4XREql4Sq-19" edge="1">
          <mxGeometry relative="1" as="geometry" />
        </mxCell>
        <UserObject label="CONFIRMAR CLIENTE" lucidchartObjectId="5~wK7thumvDX" id="q79SqbMXwKp4XREql4Sq-17">
          <mxCell style="html=1;whiteSpace=wrap;;whiteSpace=wrap;fontSize=11;fontColor=#333333;fontStyle=1;spacing=7;strokeOpacity=100;fillOpacity=72;absoluteArcSize=1;arcSize=7.199999999999999;strokeWidth=2;align=center;rounded=1;fillColor=#9999FF;" parent="_9A46UjWHR56a_WUUn8J-1" vertex="1" zOrder="64">
            <mxGeometry x="0.5" y="-9" width="110" height="77" as="geometry" />
          </mxCell>
        </UserObject>
        <mxCell id="yRQNV8-UyI73t_dO_aJO-7" style="edgeStyle=orthogonalEdgeStyle;rounded=0;orthogonalLoop=1;jettySize=auto;html=1;entryX=0;entryY=0.5;entryDx=0;entryDy=0;strokeWidth=2;" parent="_9A46UjWHR56a_WUUn8J-1" source="q79SqbMXwKp4XREql4Sq-19" target="q79SqbMXwKp4XREql4Sq-21" edge="1">
          <mxGeometry relative="1" as="geometry" />
        </mxCell>
        <UserObject label="CONFIRMAR CARGA" lucidchartObjectId="5~wK7thumvDX" id="q79SqbMXwKp4XREql4Sq-19">
          <mxCell style="html=1;whiteSpace=wrap;;whiteSpace=wrap;fontSize=11;fontColor=#333333;fontStyle=1;spacing=7;strokeOpacity=100;fillOpacity=72;absoluteArcSize=1;arcSize=7.199999999999999;strokeWidth=2;align=center;rounded=1;fillColor=#9999FF;" parent="_9A46UjWHR56a_WUUn8J-1" vertex="1" zOrder="64">
            <mxGeometry x="148.5" y="-9" width="110" height="77" as="geometry" />
          </mxCell>
        </UserObject>
        <mxCell id="yRQNV8-UyI73t_dO_aJO-9" style="edgeStyle=orthogonalEdgeStyle;rounded=0;orthogonalLoop=1;jettySize=auto;html=1;entryX=0;entryY=0.5;entryDx=0;entryDy=0;strokeWidth=2;" parent="_9A46UjWHR56a_WUUn8J-1" source="q79SqbMXwKp4XREql4Sq-21" target="q79SqbMXwKp4XREql4Sq-23" edge="1">
          <mxGeometry relative="1" as="geometry" />
        </mxCell>
        <UserObject label="TRANSPORTAR CARGA" lucidchartObjectId="5~wK7thumvDX" id="q79SqbMXwKp4XREql4Sq-21">
          <mxCell style="html=1;whiteSpace=wrap;;whiteSpace=wrap;fontSize=11;fontColor=#333333;fontStyle=1;spacing=7;strokeOpacity=100;fillOpacity=72;absoluteArcSize=1;arcSize=7.199999999999999;strokeWidth=2;align=center;rounded=1;gradientDirection=east;fillColor=#9999FF;" parent="_9A46UjWHR56a_WUUn8J-1" vertex="1" zOrder="64">
            <mxGeometry x="299.5" y="-9" width="110" height="77" as="geometry" />
          </mxCell>
        </UserObject>
        <mxCell id="yRQNV8-UyI73t_dO_aJO-10" style="edgeStyle=orthogonalEdgeStyle;rounded=0;orthogonalLoop=1;jettySize=auto;html=1;entryX=0;entryY=0.5;entryDx=0;entryDy=0;strokeWidth=2;" parent="_9A46UjWHR56a_WUUn8J-1" source="q79SqbMXwKp4XREql4Sq-23" target="q79SqbMXwKp4XREql4Sq-25" edge="1">
          <mxGeometry relative="1" as="geometry" />
        </mxCell>
        <UserObject label="CHEGAR AO DESTINO FINAL" lucidchartObjectId="5~wK7thumvDX" id="q79SqbMXwKp4XREql4Sq-23">
          <mxCell style="html=1;whiteSpace=wrap;;whiteSpace=wrap;fontSize=11;fontColor=#333333;fontStyle=1;spacing=7;strokeOpacity=100;fillOpacity=72;absoluteArcSize=1;arcSize=7.199999999999999;strokeWidth=2;align=center;rounded=1;gradientDirection=east;fillColor=#9999FF;" parent="_9A46UjWHR56a_WUUn8J-1" vertex="1" zOrder="64">
            <mxGeometry x="448.5" y="-9" width="110" height="77" as="geometry" />
          </mxCell>
        </UserObject>
        <mxCell id="yRQNV8-UyI73t_dO_aJO-11" style="edgeStyle=orthogonalEdgeStyle;rounded=0;orthogonalLoop=1;jettySize=auto;html=1;entryX=0;entryY=0.5;entryDx=0;entryDy=0;strokeWidth=2;" parent="_9A46UjWHR56a_WUUn8J-1" source="q79SqbMXwKp4XREql4Sq-25" target="LC3gS2kCTgs_xtCmDAWY-3" edge="1">
          <mxGeometry relative="1" as="geometry" />
        </mxCell>
        <UserObject label="CONFIRMAR CARGA TRANSPORTADA" lucidchartObjectId="5~wK7thumvDX" id="q79SqbMXwKp4XREql4Sq-25">
          <mxCell style="html=1;whiteSpace=wrap;;whiteSpace=wrap;fontSize=11;fontColor=#333333;fontStyle=1;spacing=7;strokeOpacity=100;fillOpacity=72;absoluteArcSize=1;arcSize=7.199999999999999;strokeWidth=2;align=center;rounded=1;fillColor=#9999FF;" parent="_9A46UjWHR56a_WUUn8J-1" vertex="1" zOrder="64">
            <mxGeometry x="600.5" y="-9" width="110" height="77" as="geometry" />
          </mxCell>
        </UserObject>
        <mxCell id="LC3gS2kCTgs_xtCmDAWY-1" value="&lt;span&gt;&lt;font style=&quot;font-size: 15px&quot;&gt;&amp;nbsp;FRETE&lt;br&gt;&lt;/font&gt;&lt;/span&gt;" style="text;html=1;align=center;verticalAlign=middle;resizable=0;points=[];autosize=1;fontFamily=Times New Roman;fontStyle=3;labelBackgroundColor=#FFFF33;strokeWidth=2;" parent="_9A46UjWHR56a_WUUn8J-1" vertex="1">
          <mxGeometry x="-11" y="-45" width="72" height="18" as="geometry" />
        </mxCell>
        <mxCell id="r3LLLDUIKtX1h_sw6sCI-16" style="edgeStyle=orthogonalEdgeStyle;rounded=0;orthogonalLoop=1;jettySize=auto;html=1;exitX=1;exitY=0.5;exitDx=0;exitDy=0;entryX=0;entryY=0.5;entryDx=0;entryDy=0;fontSize=11;strokeWidth=2;" parent="_9A46UjWHR56a_WUUn8J-1" source="LC3gS2kCTgs_xtCmDAWY-3" target="LC3gS2kCTgs_xtCmDAWY-18" edge="1">
          <mxGeometry relative="1" as="geometry" />
        </mxCell>
        <UserObject label="COBRAR CLIENTE" lucidchartObjectId="5~wK7thumvDX" id="LC3gS2kCTgs_xtCmDAWY-3">
          <mxCell style="html=1;whiteSpace=wrap;;whiteSpace=wrap;fontSize=11;fontColor=#333333;fontStyle=1;spacing=7;strokeOpacity=100;fillOpacity=72;absoluteArcSize=1;arcSize=7.199999999999999;strokeWidth=2;align=center;rounded=1;fillColor=#9999FF;" parent="_9A46UjWHR56a_WUUn8J-1" vertex="1" zOrder="64">
            <mxGeometry x="750.5" y="-9" width="110" height="77" as="geometry" />
          </mxCell>
        </UserObject>
        <UserObject label="CONFIRMAR VEÍCULO" lucidchartObjectId="d~wKO_Ew.pH2" id="LC3gS2kCTgs_xtCmDAWY-5">
          <mxCell style="html=1;whiteSpace=wrap;;whiteSpace=wrap;fontSize=11;fontColor=#333333;fontStyle=1;spacing=7;strokeOpacity=100;fillOpacity=72;absoluteArcSize=1;arcSize=7.199999999999999;strokeWidth=2;rounded=1;fillColor=#9999FF;" parent="_9A46UjWHR56a_WUUn8J-1" vertex="1" zOrder="61">
            <mxGeometry x="150" y="115" width="110" height="77" as="geometry" />
          </mxCell>
        </UserObject>
        <UserObject label="EMBARQUE DA CARGA" lucidchartObjectId="5~wK7thumvDX" id="LC3gS2kCTgs_xtCmDAWY-6">
          <mxCell style="html=1;whiteSpace=wrap;;whiteSpace=wrap;fontSize=11;fontColor=#333333;fontStyle=1;spacing=7;strokeOpacity=100;fillOpacity=72;absoluteArcSize=1;arcSize=7.199999999999999;strokeWidth=2;rounded=1;fillColor=#9999FF;" parent="_9A46UjWHR56a_WUUn8J-1" vertex="1" zOrder="64">
            <mxGeometry x="299.5" y="115" width="110" height="77" as="geometry" />
          </mxCell>
        </UserObject>
        <mxCell id="LC3gS2kCTgs_xtCmDAWY-4" style="edgeStyle=orthogonalEdgeStyle;orthogonalLoop=1;jettySize=auto;html=1;exitX=1;exitY=0.5;exitDx=0;exitDy=0;entryX=0;entryY=0.5;entryDx=0;entryDy=0;strokeWidth=2;fontSize=11;fillColor=#B266FF;curved=1;" parent="_9A46UjWHR56a_WUUn8J-1" source="LC3gS2kCTgs_xtCmDAWY-5" target="LC3gS2kCTgs_xtCmDAWY-6" edge="1">
          <mxGeometry relative="1" as="geometry" />
        </mxCell>
        <mxCell id="LC3gS2kCTgs_xtCmDAWY-7" style="edgeStyle=orthogonalEdgeStyle;orthogonalLoop=1;jettySize=auto;html=1;exitX=1;exitY=0.5;exitDx=0;exitDy=0;entryX=0;entryY=0.5;entryDx=0;entryDy=0;curved=1;strokeWidth=2;fontSize=11;" parent="_9A46UjWHR56a_WUUn8J-1" source="LC3gS2kCTgs_xtCmDAWY-8" target="LC3gS2kCTgs_xtCmDAWY-5" edge="1">
          <mxGeometry relative="1" as="geometry" />
        </mxCell>
        <UserObject label="CONFIRMAR FRETISTA" lucidchartObjectId="5~wK7thumvDX" id="LC3gS2kCTgs_xtCmDAWY-8">
          <mxCell style="html=1;whiteSpace=wrap;;whiteSpace=wrap;fontSize=11;fontColor=#333333;fontStyle=1;spacing=7;strokeOpacity=100;fillOpacity=72;absoluteArcSize=1;arcSize=7.199999999999999;strokeWidth=2;rounded=1;gradientDirection=east;fillColor=#9999FF;" parent="_9A46UjWHR56a_WUUn8J-1" vertex="1" zOrder="64">
            <mxGeometry y="115" width="110" height="77" as="geometry" />
          </mxCell>
        </UserObject>
        <UserObject label="ACOMPANHAR VIAGEM FRETISTA" lucidchartObjectId="d~wKO_Ew.pH2" id="LC3gS2kCTgs_xtCmDAWY-10">
          <mxCell style="html=1;whiteSpace=wrap;;whiteSpace=wrap;fontSize=11;fontColor=#333333;fontStyle=1;spacing=7;strokeOpacity=100;fillOpacity=72;absoluteArcSize=1;arcSize=7.199999999999999;fillColor=#B266FF;strokeWidth=2;rounded=1;" parent="_9A46UjWHR56a_WUUn8J-1" vertex="1" zOrder="61">
            <mxGeometry x="448.5" y="115" width="110" height="77" as="geometry" />
          </mxCell>
        </UserObject>
        <mxCell id="EiOqhJgpfhrRnLZbss4f-4" value="" style="edgeStyle=orthogonalEdgeStyle;rounded=0;orthogonalLoop=1;jettySize=auto;html=1;strokeColor=#000000;strokeWidth=2;fontSize=11;" parent="_9A46UjWHR56a_WUUn8J-1" source="LC3gS2kCTgs_xtCmDAWY-6" target="LC3gS2kCTgs_xtCmDAWY-10" edge="1">
          <mxGeometry relative="1" as="geometry" />
        </mxCell>
        <mxCell id="VlEH_Ozh7a5a1OLnvY-m-17" style="edgeStyle=orthogonalEdgeStyle;rounded=0;orthogonalLoop=1;jettySize=auto;html=1;entryX=0;entryY=0.5;entryDx=0;entryDy=0;fontSize=11;strokeWidth=2;" parent="_9A46UjWHR56a_WUUn8J-1" source="LC3gS2kCTgs_xtCmDAWY-11" target="LC3gS2kCTgs_xtCmDAWY-19" edge="1">
          <mxGeometry relative="1" as="geometry" />
        </mxCell>
        <UserObject label="RECEBER CARGA TRANSPORTADA" lucidchartObjectId="5~wK7thumvDX" id="LC3gS2kCTgs_xtCmDAWY-11">
          <mxCell style="html=1;whiteSpace=wrap;;whiteSpace=wrap;fontSize=11;fontColor=#333333;fontStyle=1;spacing=7;strokeOpacity=100;fillOpacity=72;absoluteArcSize=1;arcSize=7.199999999999999;strokeWidth=2;rounded=1;fillColor=#9999FF;" parent="_9A46UjWHR56a_WUUn8J-1" vertex="1" zOrder="64">
            <mxGeometry x="600.5" y="115" width="110" height="77" as="geometry" />
          </mxCell>
        </UserObject>
        <mxCell id="LC3gS2kCTgs_xtCmDAWY-9" style="edgeStyle=orthogonalEdgeStyle;orthogonalLoop=1;jettySize=auto;html=1;exitX=1;exitY=0.5;exitDx=0;exitDy=0;entryX=0;entryY=0.5;entryDx=0;entryDy=0;strokeWidth=2;fontSize=11;fillColor=#B266FF;curved=1;" parent="_9A46UjWHR56a_WUUn8J-1" source="LC3gS2kCTgs_xtCmDAWY-10" target="LC3gS2kCTgs_xtCmDAWY-11" edge="1">
          <mxGeometry relative="1" as="geometry" />
        </mxCell>
        <UserObject label="PAGAR FRETISTA" lucidchartObjectId="5~wK7thumvDX" id="LC3gS2kCTgs_xtCmDAWY-14">
          <mxCell style="html=1;whiteSpace=wrap;;whiteSpace=wrap;fontSize=11;fontColor=#333333;fontStyle=1;spacing=7;strokeOpacity=100;fillOpacity=72;absoluteArcSize=1;arcSize=7.199999999999999;strokeWidth=2;rounded=1;fillColor=#9999FF;" parent="_9A46UjWHR56a_WUUn8J-1" vertex="1" zOrder="64">
            <mxGeometry x="907" y="115" width="110" height="77" as="geometry" />
          </mxCell>
        </UserObject>
        <mxCell id="LC3gS2kCTgs_xtCmDAWY-15" style="edgeStyle=orthogonalEdgeStyle;orthogonalLoop=1;jettySize=auto;html=1;exitX=1;exitY=0.5;exitDx=0;exitDy=0;entryX=0;entryY=0.5;entryDx=0;entryDy=0;strokeWidth=2;fontSize=11;fillColor=#B266FF;curved=1;" parent="_9A46UjWHR56a_WUUn8J-1" source="LC3gS2kCTgs_xtCmDAWY-14" target="LC3gS2kCTgs_xtCmDAWY-16" edge="1">
          <mxGeometry relative="1" as="geometry">
            <mxPoint x="1089.5" y="145" as="sourcePoint" />
          </mxGeometry>
        </mxCell>
        <UserObject label="AVALIAR FRETISTA" lucidchartObjectId="5~wK7thumvDX" id="LC3gS2kCTgs_xtCmDAWY-16">
          <mxCell style="html=1;whiteSpace=wrap;;whiteSpace=wrap;fontSize=11;fontColor=#333333;fontStyle=1;spacing=7;strokeOpacity=100;fillOpacity=72;absoluteArcSize=1;arcSize=7.199999999999999;fillColor=#B266FF;strokeWidth=2;rounded=1;gradientDirection=east;" parent="_9A46UjWHR56a_WUUn8J-1" vertex="1" zOrder="64">
            <mxGeometry x="1060" y="115" width="110" height="77" as="geometry" />
          </mxCell>
        </UserObject>
        <UserObject label="AVALIAR CLIENTE" lucidchartObjectId="5~wK7thumvDX" id="LC3gS2kCTgs_xtCmDAWY-18">
          <mxCell style="html=1;whiteSpace=wrap;;whiteSpace=wrap;fontSize=11;fontColor=#333333;fontStyle=1;spacing=7;strokeOpacity=100;fillOpacity=72;absoluteArcSize=1;arcSize=7.199999999999999;strokeWidth=2;rounded=1;fillColor=#B266FF;" parent="_9A46UjWHR56a_WUUn8J-1" vertex="1" zOrder="64">
            <mxGeometry x="901.5" y="-9" width="110" height="77" as="geometry" />
          </mxCell>
        </UserObject>
        <UserObject label="CONFIRMAR CARGA TRANSPORTADA" lucidchartObjectId="5~wK7thumvDX" id="LC3gS2kCTgs_xtCmDAWY-19">
          <mxCell style="html=1;whiteSpace=wrap;;whiteSpace=wrap;fontSize=11;fontColor=#333333;fontStyle=1;spacing=7;strokeOpacity=100;fillOpacity=72;absoluteArcSize=1;arcSize=7.199999999999999;strokeWidth=2;align=center;rounded=1;fillColor=#9999FF;" parent="_9A46UjWHR56a_WUUn8J-1" vertex="1" zOrder="64">
            <mxGeometry x="750.5" y="115" width="110" height="77" as="geometry" />
          </mxCell>
        </UserObject>
        <mxCell id="LC3gS2kCTgs_xtCmDAWY-13" style="edgeStyle=orthogonalEdgeStyle;orthogonalLoop=1;jettySize=auto;html=1;exitX=1;exitY=0.5;exitDx=0;exitDy=0;entryX=0;entryY=0.5;entryDx=0;entryDy=0;strokeWidth=2;fontSize=11;fillColor=#B266FF;curved=1;" parent="_9A46UjWHR56a_WUUn8J-1" source="LC3gS2kCTgs_xtCmDAWY-19" target="LC3gS2kCTgs_xtCmDAWY-14" edge="1">
          <mxGeometry relative="1" as="geometry">
            <mxPoint x="755" y="145" as="sourcePoint" />
          </mxGeometry>
        </mxCell>
        <mxCell id="_9A46UjWHR56a_WUUn8J-2" value="" style="group;rounded=0;" parent="1" vertex="1" connectable="0">
          <mxGeometry x="73.5" y="414" width="1311.5" height="257" as="geometry" />
        </mxCell>
        <UserObject label="VER LOCAL DE PARTIDA" lucidchartObjectId="d~wKO_Ew.pH2" id="q79SqbMXwKp4XREql4Sq-6">
          <mxCell style="html=1;whiteSpace=wrap;;whiteSpace=wrap;fontSize=11;fontColor=#333333;fontStyle=1;spacing=7;strokeOpacity=100;fillOpacity=72;absoluteArcSize=1;arcSize=7.199999999999999;fillColor=#B266FF;strokeWidth=2;rounded=1;" parent="_9A46UjWHR56a_WUUn8J-2" vertex="1" zOrder="61">
            <mxGeometry x="150" y="133.5" width="110" height="77" as="geometry" />
          </mxCell>
        </UserObject>
        <UserObject label="VER DESTINO FINAL" lucidchartObjectId="5~wK7thumvDX" id="q79SqbMXwKp4XREql4Sq-8">
          <mxCell style="html=1;whiteSpace=wrap;;whiteSpace=wrap;fontSize=11;fontColor=#333333;fontStyle=1;spacing=7;strokeOpacity=100;fillOpacity=72;absoluteArcSize=1;arcSize=7.199999999999999;fillColor=#B266FF;strokeWidth=2;rounded=1;" parent="_9A46UjWHR56a_WUUn8J-2" vertex="1" zOrder="64">
            <mxGeometry x="300" y="133.5" width="110" height="77" as="geometry" />
          </mxCell>
        </UserObject>
        <mxCell id="q79SqbMXwKp4XREql4Sq-5" style="edgeStyle=orthogonalEdgeStyle;orthogonalLoop=1;jettySize=auto;html=1;exitX=1;exitY=0.5;exitDx=0;exitDy=0;entryX=0;entryY=0.5;entryDx=0;entryDy=0;strokeWidth=2;fontSize=11;fillColor=#B266FF;curved=1;" parent="_9A46UjWHR56a_WUUn8J-2" source="q79SqbMXwKp4XREql4Sq-6" target="q79SqbMXwKp4XREql4Sq-8" edge="1">
          <mxGeometry relative="1" as="geometry" />
        </mxCell>
        <UserObject label="FRETISTA VER PREÇO SUGERIDO" lucidchartObjectId="d~wKO_Ew.pH2" id="q79SqbMXwKp4XREql4Sq-10">
          <mxCell style="html=1;whiteSpace=wrap;;whiteSpace=wrap;fontSize=11;fontColor=#333333;fontStyle=1;spacing=7;strokeOpacity=100;fillOpacity=72;absoluteArcSize=1;arcSize=7.199999999999999;fillColor=#B266FF;strokeWidth=2;rounded=1;gradientDirection=east;" parent="_9A46UjWHR56a_WUUn8J-2" vertex="1" zOrder="61">
            <mxGeometry x="600" y="133.5" width="110" height="77" as="geometry" />
          </mxCell>
        </UserObject>
        <mxCell id="r3LLLDUIKtX1h_sw6sCI-14" style="edgeStyle=orthogonalEdgeStyle;rounded=0;orthogonalLoop=1;jettySize=auto;html=1;exitX=1;exitY=0.5;exitDx=0;exitDy=0;entryX=0;entryY=0.5;entryDx=0;entryDy=0;fontSize=11;" parent="_9A46UjWHR56a_WUUn8J-2" source="q79SqbMXwKp4XREql4Sq-11" target="q79SqbMXwKp4XREql4Sq-13" edge="1">
          <mxGeometry relative="1" as="geometry" />
        </mxCell>
        <UserObject label="CONFIRMAR SERVIÇO" lucidchartObjectId="5~wK7thumvDX" id="q79SqbMXwKp4XREql4Sq-11">
          <mxCell style="html=1;whiteSpace=wrap;;whiteSpace=wrap;fontSize=11;fontColor=#333333;fontStyle=1;spacing=7;strokeOpacity=100;fillOpacity=72;absoluteArcSize=1;arcSize=7.199999999999999;strokeWidth=2;align=center;rounded=1;gradientDirection=east;fillColor=#B266FF;" parent="_9A46UjWHR56a_WUUn8J-2" vertex="1" zOrder="64">
            <mxGeometry x="750" y="133.5" width="110" height="77" as="geometry" />
          </mxCell>
        </UserObject>
        <mxCell id="q79SqbMXwKp4XREql4Sq-9" style="edgeStyle=orthogonalEdgeStyle;orthogonalLoop=1;jettySize=auto;html=1;exitX=1;exitY=0.5;exitDx=0;exitDy=0;entryX=0;entryY=0.5;entryDx=0;entryDy=0;strokeWidth=2;fontSize=11;fillColor=#B266FF;curved=1;" parent="_9A46UjWHR56a_WUUn8J-2" source="q79SqbMXwKp4XREql4Sq-10" target="q79SqbMXwKp4XREql4Sq-11" edge="1">
          <mxGeometry relative="1" as="geometry" />
        </mxCell>
        <mxCell id="r3LLLDUIKtX1h_sw6sCI-15" style="edgeStyle=orthogonalEdgeStyle;rounded=0;orthogonalLoop=1;jettySize=auto;html=1;exitX=1;exitY=0.5;exitDx=0;exitDy=0;entryX=0;entryY=0.5;entryDx=0;entryDy=0;fontSize=11;" parent="_9A46UjWHR56a_WUUn8J-2" source="q79SqbMXwKp4XREql4Sq-13" target="q79SqbMXwKp4XREql4Sq-46" edge="1">
          <mxGeometry relative="1" as="geometry" />
        </mxCell>
        <UserObject label="IR AO LOCAL DE PARTIDA" lucidchartObjectId="5~wK7thumvDX" id="q79SqbMXwKp4XREql4Sq-13">
          <mxCell style="html=1;whiteSpace=wrap;;whiteSpace=wrap;fontSize=11;fontColor=#333333;fontStyle=1;spacing=7;strokeOpacity=100;fillOpacity=72;absoluteArcSize=1;arcSize=7.199999999999999;strokeWidth=2;align=center;rounded=1;fillColor=#B266FF;gradientDirection=east;" parent="_9A46UjWHR56a_WUUn8J-2" vertex="1" zOrder="64">
            <mxGeometry x="900" y="133.5" width="110" height="77" as="geometry" />
          </mxCell>
        </UserObject>
        <mxCell id="q79SqbMXwKp4XREql4Sq-16" style="edgeStyle=orthogonalEdgeStyle;orthogonalLoop=1;jettySize=auto;html=1;exitX=1;exitY=0.5;exitDx=0;exitDy=0;entryX=0;entryY=0.5;entryDx=0;entryDy=0;curved=1;strokeWidth=2;fontSize=11;" parent="_9A46UjWHR56a_WUUn8J-2" source="q79SqbMXwKp4XREql4Sq-15" target="q79SqbMXwKp4XREql4Sq-6" edge="1">
          <mxGeometry relative="1" as="geometry" />
        </mxCell>
        <UserObject label="FRETISTA RECEBE PEDIDO" lucidchartObjectId="5~wK7thumvDX" id="q79SqbMXwKp4XREql4Sq-15">
          <mxCell style="html=1;whiteSpace=wrap;;whiteSpace=wrap;fontSize=11;fontColor=#333333;fontStyle=1;spacing=7;strokeOpacity=100;fillOpacity=72;absoluteArcSize=1;arcSize=7.199999999999999;fillColor=#B266FF;strokeWidth=2;rounded=1;gradientDirection=east;" parent="_9A46UjWHR56a_WUUn8J-2" vertex="1" zOrder="64">
            <mxGeometry y="133.5" width="110" height="77" as="geometry" />
          </mxCell>
        </UserObject>
        <UserObject label="VER CATÁLOGO A SER FRETADO" lucidchartObjectId="d~wKO_Ew.pH2" id="q79SqbMXwKp4XREql4Sq-29">
          <mxCell style="html=1;whiteSpace=wrap;;whiteSpace=wrap;fontSize=11;fontColor=#333333;fontStyle=1;spacing=7;strokeOpacity=100;fillOpacity=72;absoluteArcSize=1;arcSize=12;strokeWidth=2;rounded=1;fillColor=#B266FF;" parent="_9A46UjWHR56a_WUUn8J-2" vertex="1" zOrder="61">
            <mxGeometry x="450" y="133.5" width="110" height="77" as="geometry" />
          </mxCell>
        </UserObject>
        <mxCell id="q79SqbMXwKp4XREql4Sq-7" style="edgeStyle=orthogonalEdgeStyle;orthogonalLoop=1;jettySize=auto;html=1;exitX=1;exitY=0.5;exitDx=0;exitDy=0;entryX=0;entryY=0.5;entryDx=0;entryDy=0;strokeWidth=2;fontSize=11;fillColor=#B266FF;curved=1;" parent="_9A46UjWHR56a_WUUn8J-2" source="q79SqbMXwKp4XREql4Sq-29" target="q79SqbMXwKp4XREql4Sq-10" edge="1">
          <mxGeometry relative="1" as="geometry" />
        </mxCell>
        <mxCell id="q79SqbMXwKp4XREql4Sq-30" style="edgeStyle=orthogonalEdgeStyle;orthogonalLoop=1;jettySize=auto;html=1;exitX=1;exitY=0.5;exitDx=0;exitDy=0;entryX=0;entryY=0.5;entryDx=0;entryDy=0;strokeWidth=2;fontSize=3;fillColor=#B266FF;curved=1;" parent="_9A46UjWHR56a_WUUn8J-2" source="q79SqbMXwKp4XREql4Sq-8" target="q79SqbMXwKp4XREql4Sq-29" edge="1">
          <mxGeometry relative="1" as="geometry">
            <mxPoint x="410" y="163.5" as="sourcePoint" />
            <mxPoint x="600" y="163.5" as="targetPoint" />
          </mxGeometry>
        </mxCell>
        <UserObject label="CHEGAR AO LOCAL DE PARTIDA" lucidchartObjectId="5~wK7thumvDX" id="q79SqbMXwKp4XREql4Sq-46">
          <mxCell style="html=1;whiteSpace=wrap;;whiteSpace=wrap;fontSize=11;fontColor=#333333;fontStyle=1;spacing=7;strokeOpacity=100;fillOpacity=72;absoluteArcSize=1;arcSize=7.199999999999999;strokeWidth=2;align=center;rounded=1;fillColor=#B266FF;gradientDirection=east;" parent="_9A46UjWHR56a_WUUn8J-2" vertex="1" zOrder="64">
            <mxGeometry x="1050" y="133.5" width="110" height="77" as="geometry" />
          </mxCell>
        </UserObject>
        <mxCell id="VlEH_Ozh7a5a1OLnvY-m-8" value="&lt;span style=&quot;font-size: 15px&quot;&gt;FRETISTA COMEÇA A RECEBER SOLICITAÇÕES&lt;/span&gt;" style="text;html=1;align=center;verticalAlign=middle;resizable=0;points=[];autosize=1;fontFamily=Times New Roman;fontStyle=3;labelBackgroundColor=#FFFF33;strokeWidth=2;" parent="_9A46UjWHR56a_WUUn8J-2" vertex="1">
          <mxGeometry x="-10.5" y="99" width="351" height="18" as="geometry" />
        </mxCell>
        <mxCell id="5zUM4UfGwmeXMXti6Oat-2" style="edgeStyle=orthogonalEdgeStyle;rounded=1;orthogonalLoop=1;jettySize=auto;html=1;exitX=0;exitY=0.5;exitDx=0;exitDy=0;entryX=0.5;entryY=0;entryDx=0;entryDy=0;" parent="_9A46UjWHR56a_WUUn8J-2" source="5zUM4UfGwmeXMXti6Oat-1" target="q79SqbMXwKp4XREql4Sq-11" edge="1">
          <mxGeometry relative="1" as="geometry" />
        </mxCell>
        <mxCell id="5zUM4UfGwmeXMXti6Oat-1" value="chat?" style="rounded=1;whiteSpace=wrap;html=1;arcSize=10;" parent="_9A46UjWHR56a_WUUn8J-2" vertex="1">
          <mxGeometry x="907.5" width="120" height="60" as="geometry" />
        </mxCell>
        <mxCell id="_9A46UjWHR56a_WUUn8J-3" value="" style="group" parent="1" vertex="1" connectable="0">
          <mxGeometry x="71.5" y="-75" width="1014.5" height="248" as="geometry" />
        </mxCell>
        <mxCell id="VlEH_Ozh7a5a1OLnvY-m-6" style="edgeStyle=orthogonalEdgeStyle;rounded=0;orthogonalLoop=1;jettySize=auto;html=1;exitX=1;exitY=0.5;exitDx=0;exitDy=0;entryX=0;entryY=0.5;entryDx=0;entryDy=0;fontSize=11;" parent="_9A46UjWHR56a_WUUn8J-3" source="2FagUGivekg9gJh4EhXs-40" target="2FagUGivekg9gJh4EhXs-68" edge="1">
          <mxGeometry relative="1" as="geometry" />
        </mxCell>
        <UserObject label="CLIENTE ABRE O APP" lucidchartObjectId="d~wKO_Ew.pH2" id="2FagUGivekg9gJh4EhXs-40">
          <mxCell style="html=1;whiteSpace=wrap;;whiteSpace=wrap;fontSize=11;fontColor=#333333;fontStyle=1;spacing=7;strokeOpacity=100;fillOpacity=72;absoluteArcSize=1;arcSize=7.199999999999999;strokeWidth=2;rounded=1;gradientDirection=east;fillColor=#B266FF;" parent="_9A46UjWHR56a_WUUn8J-3" vertex="1" zOrder="61">
            <mxGeometry y="180" width="110" height="77" as="geometry" />
          </mxCell>
        </UserObject>
        <UserObject label="ABRE O CATÁLOGO" lucidchartObjectId="5~wK7thumvDX" id="2FagUGivekg9gJh4EhXs-42">
          <mxCell style="html=1;whiteSpace=wrap;;whiteSpace=wrap;fontSize=11;fontColor=#333333;fontStyle=1;spacing=7;strokeOpacity=100;fillOpacity=72;absoluteArcSize=1;arcSize=7.199999999999999;fillColor=#B266FF;strokeWidth=2;rounded=1;" parent="_9A46UjWHR56a_WUUn8J-3" vertex="1" zOrder="64">
            <mxGeometry x="1063.5" y="180.5" width="110" height="77" as="geometry" />
          </mxCell>
        </UserObject>
        <UserObject label="CLIENTE LISTA OS PRODUTOS" lucidchartObjectId="d~wKO_Ew.pH2" id="2FagUGivekg9gJh4EhXs-44">
          <mxCell style="html=1;whiteSpace=wrap;;whiteSpace=wrap;fontSize=11;fontColor=#333333;fontStyle=1;spacing=7;strokeOpacity=100;fillOpacity=72;absoluteArcSize=1;arcSize=7.199999999999999;strokeWidth=2;rounded=1;gradientDirection=east;fillColor=#B266FF;" parent="_9A46UjWHR56a_WUUn8J-3" vertex="1" zOrder="61">
            <mxGeometry x="612.5" y="179.5" width="110" height="77" as="geometry" />
          </mxCell>
        </UserObject>
        <UserObject label="&lt;span style=&quot;font-size: 11px;&quot;&gt;CLIENTE CONFIRMA OS PRODUTOS&lt;/span&gt;" lucidchartObjectId="5~wK7thumvDX" id="lydl9CK-ZkPdSqsnDGM0-40">
          <mxCell style="html=1;whiteSpace=wrap;;whiteSpace=wrap;fontSize=11;fontColor=#333333;fontStyle=1;spacing=7;strokeOpacity=100;fillOpacity=72;absoluteArcSize=1;arcSize=7.199999999999999;fillColor=#B266FF;strokeWidth=2;rounded=1;" parent="_9A46UjWHR56a_WUUn8J-3" vertex="1" zOrder="64">
            <mxGeometry x="765.5" y="179.5" width="110" height="77" as="geometry" />
          </mxCell>
        </UserObject>
        <mxCell id="lydl9CK-ZkPdSqsnDGM0-43" style="edgeStyle=orthogonalEdgeStyle;rounded=0;orthogonalLoop=1;jettySize=auto;html=1;entryX=0;entryY=0.5;entryDx=0;entryDy=0;strokeWidth=2;fontSize=11;" parent="_9A46UjWHR56a_WUUn8J-3" source="2FagUGivekg9gJh4EhXs-44" target="lydl9CK-ZkPdSqsnDGM0-40" edge="1">
          <mxGeometry relative="1" as="geometry" />
        </mxCell>
        <mxCell id="lydl9CK-ZkPdSqsnDGM0-45" style="edgeStyle=orthogonalEdgeStyle;rounded=0;orthogonalLoop=1;jettySize=auto;html=1;entryX=0;entryY=0.5;entryDx=0;entryDy=0;strokeWidth=2;fontSize=11;" parent="_9A46UjWHR56a_WUUn8J-3" source="lydl9CK-ZkPdSqsnDGM0-41" target="2FagUGivekg9gJh4EhXs-42" edge="1">
          <mxGeometry relative="1" as="geometry" />
        </mxCell>
        <UserObject label="APP CALCULA PESO E VOLUME" lucidchartObjectId="5~wK7thumvDX" id="lydl9CK-ZkPdSqsnDGM0-41">
          <mxCell style="html=1;whiteSpace=wrap;;whiteSpace=wrap;fontSize=11;fontColor=#333333;fontStyle=1;spacing=7;strokeOpacity=100;fillOpacity=72;absoluteArcSize=1;arcSize=7.199999999999999;fillColor=#B266FF;strokeWidth=2;rounded=1;" parent="_9A46UjWHR56a_WUUn8J-3" vertex="1" zOrder="64">
            <mxGeometry x="918.5" y="180" width="110" height="77" as="geometry" />
          </mxCell>
        </UserObject>
        <mxCell id="lydl9CK-ZkPdSqsnDGM0-44" style="edgeStyle=orthogonalEdgeStyle;rounded=0;orthogonalLoop=1;jettySize=auto;html=1;entryX=0;entryY=0.5;entryDx=0;entryDy=0;strokeWidth=2;fontSize=11;" parent="_9A46UjWHR56a_WUUn8J-3" source="lydl9CK-ZkPdSqsnDGM0-40" target="lydl9CK-ZkPdSqsnDGM0-41" edge="1">
          <mxGeometry relative="1" as="geometry" />
        </mxCell>
        <mxCell id="VlEH_Ozh7a5a1OLnvY-m-3" value="&lt;span style=&quot;font-size: 15px&quot;&gt;CLIENTE PREENCHE INFORMAÇÕES&lt;/span&gt;" style="text;html=1;align=center;verticalAlign=middle;resizable=0;points=[];autosize=1;fontFamily=Times New Roman;fontStyle=3;labelBackgroundColor=#FFFF33;strokeWidth=2;" parent="_9A46UjWHR56a_WUUn8J-3" vertex="1">
          <mxGeometry x="-8.5" y="147" width="279" height="18" as="geometry" />
        </mxCell>
        <UserObject label="LOCAL DE PARTIDA" lucidchartObjectId="d~wKO_Ew.pH2" id="2FagUGivekg9gJh4EhXs-68">
          <mxCell style="html=1;whiteSpace=wrap;;whiteSpace=wrap;fontSize=11;fontColor=#333333;fontStyle=1;spacing=7;strokeOpacity=100;fillOpacity=72;absoluteArcSize=1;arcSize=7.199999999999999;strokeWidth=2;rounded=1;gradientDirection=east;fillColor=#B266FF;" parent="_9A46UjWHR56a_WUUn8J-3" vertex="1" zOrder="61">
            <mxGeometry x="150" y="180" width="110" height="77" as="geometry" />
          </mxCell>
        </UserObject>
        <UserObject label="DESTINO FINAL" lucidchartObjectId="5~wK7thumvDX" id="2FagUGivekg9gJh4EhXs-70">
          <mxCell style="html=1;whiteSpace=wrap;;whiteSpace=wrap;fontSize=11;fontColor=#333333;fontStyle=1;spacing=7;strokeOpacity=100;fillOpacity=72;absoluteArcSize=1;arcSize=7.199999999999999;strokeWidth=2;rounded=1;gradientDirection=east;fillColor=#B266FF;" parent="_9A46UjWHR56a_WUUn8J-3" vertex="1" zOrder="64">
            <mxGeometry x="300" y="180" width="110" height="77" as="geometry" />
          </mxCell>
        </UserObject>
        <mxCell id="2FagUGivekg9gJh4EhXs-67" style="edgeStyle=orthogonalEdgeStyle;orthogonalLoop=1;jettySize=auto;html=1;exitX=1;exitY=0.5;exitDx=0;exitDy=0;entryX=0;entryY=0.5;entryDx=0;entryDy=0;strokeWidth=2;fontSize=11;fillColor=#B266FF;curved=1;" parent="_9A46UjWHR56a_WUUn8J-3" source="2FagUGivekg9gJh4EhXs-68" target="2FagUGivekg9gJh4EhXs-70" edge="1">
          <mxGeometry relative="1" as="geometry" />
        </mxCell>
        <mxCell id="VlEH_Ozh7a5a1OLnvY-m-7" style="edgeStyle=orthogonalEdgeStyle;rounded=0;orthogonalLoop=1;jettySize=auto;html=1;exitX=1;exitY=0.5;exitDx=0;exitDy=0;entryX=0;entryY=0.5;entryDx=0;entryDy=0;fontSize=11;" parent="_9A46UjWHR56a_WUUn8J-3" source="q79SqbMXwKp4XREql4Sq-31" target="2FagUGivekg9gJh4EhXs-44" edge="1">
          <mxGeometry relative="1" as="geometry" />
        </mxCell>
        <UserObject label="CONFIRMAR LOCAIS" lucidchartObjectId="d~wKO_Ew.pH2" id="q79SqbMXwKp4XREql4Sq-31">
          <mxCell style="html=1;whiteSpace=wrap;;whiteSpace=wrap;fontSize=11;fontColor=#333333;fontStyle=1;spacing=7;strokeOpacity=100;fillOpacity=72;absoluteArcSize=1;arcSize=7.199999999999999;strokeWidth=2;rounded=1;fillColor=#B266FF;" parent="_9A46UjWHR56a_WUUn8J-3" vertex="1" zOrder="61">
            <mxGeometry x="450.5" y="180" width="110" height="77" as="geometry" />
          </mxCell>
        </UserObject>
        <mxCell id="q79SqbMXwKp4XREql4Sq-32" style="edgeStyle=orthogonalEdgeStyle;orthogonalLoop=1;jettySize=auto;html=1;exitX=1;exitY=0.5;exitDx=0;exitDy=0;entryX=0;entryY=0.5;entryDx=0;entryDy=0;strokeWidth=2;fontSize=11;fillColor=#B266FF;curved=1;" parent="_9A46UjWHR56a_WUUn8J-3" source="2FagUGivekg9gJh4EhXs-70" target="q79SqbMXwKp4XREql4Sq-31" edge="1">
          <mxGeometry relative="1" as="geometry">
            <mxPoint x="410" y="209.99999999999977" as="sourcePoint" />
            <mxPoint x="600" y="209.99999999999977" as="targetPoint" />
          </mxGeometry>
        </mxCell>
        <mxCell id="_9A46UjWHR56a_WUUn8J-4" value="" style="group;fontStyle=1" parent="1" vertex="1" connectable="0">
          <mxGeometry x="71.5" y="-468" width="893.5" height="213" as="geometry" />
        </mxCell>
        <UserObject label="CLIENTE BAIXA APP" lucidchartObjectId="qwwKvEui36Ie" id="rHKmbyzbA7fJzTo6jydG-36">
          <mxCell style="html=1;whiteSpace=wrap;;whiteSpace=wrap;fontSize=11;fontColor=#333333;fontStyle=1;spacing=7;strokeOpacity=100;fillOpacity=72;absoluteArcSize=1;arcSize=7.199999999999999;fillColor=#B266FF;strokeWidth=2;rounded=1;" parent="_9A46UjWHR56a_WUUn8J-4" vertex="1" zOrder="42">
            <mxGeometry x="162.5" y="111" width="110" height="77" as="geometry" />
          </mxCell>
        </UserObject>
        <UserObject label="CADASTRO DO CLIENTE" lucidchartObjectId="_xwKCs6uE0Kd" id="rHKmbyzbA7fJzTo6jydG-37">
          <mxCell style="html=1;whiteSpace=wrap;;whiteSpace=wrap;fontSize=11;fontColor=#333333;fontStyle=1;spacing=7;strokeOpacity=100;fillOpacity=72;absoluteArcSize=1;arcSize=7.199999999999999;fillColor=#B266FF;strokeWidth=2;rounded=1;gradientDirection=east;" parent="_9A46UjWHR56a_WUUn8J-4" vertex="1" zOrder="43">
            <mxGeometry x="316" y="111" width="110" height="77" as="geometry" />
          </mxCell>
        </UserObject>
        <mxCell id="2FagUGivekg9gJh4EhXs-15" style="edgeStyle=orthogonalEdgeStyle;orthogonalLoop=1;jettySize=auto;html=1;exitX=1;exitY=0.5;exitDx=0;exitDy=0;entryX=0;entryY=0.5;entryDx=0;entryDy=0;strokeWidth=2;fontSize=11;fillColor=#B266FF;curved=1;" parent="_9A46UjWHR56a_WUUn8J-4" source="rHKmbyzbA7fJzTo6jydG-36" target="rHKmbyzbA7fJzTo6jydG-37" edge="1">
          <mxGeometry relative="1" as="geometry" />
        </mxCell>
        <UserObject label="CLIENTE LIBERADO" lucidchartObjectId="N0wKYOwpYnif" id="rHKmbyzbA7fJzTo6jydG-52">
          <mxCell style="html=1;whiteSpace=wrap;;whiteSpace=wrap;fontSize=11;fontColor=#333333;fontStyle=1;spacing=7;strokeOpacity=100;fillOpacity=72;absoluteArcSize=1;arcSize=7.199999999999999;strokeWidth=2;fillColor=#B266FF;rounded=1;gradientDirection=east;" parent="_9A46UjWHR56a_WUUn8J-4" vertex="1" zOrder="58">
            <mxGeometry x="640" y="111" width="110" height="77" as="geometry" />
          </mxCell>
        </UserObject>
        <mxCell id="lydl9CK-ZkPdSqsnDGM0-3" value="DOWNLOAD E CADASTRO DO CLIENTE" style="text;html=1;fillColor=none;align=center;verticalAlign=middle;whiteSpace=wrap;rounded=0;labelBackgroundColor=#FFFF33;fontStyle=3;strokeWidth=2;" parent="_9A46UjWHR56a_WUUn8J-4" vertex="1">
          <mxGeometry x="-44.5" y="72" width="315" height="20" as="geometry" />
        </mxCell>
        <mxCell id="McGuKTuxEj6wb3Da-vRc-6" style="edgeStyle=orthogonalEdgeStyle;rounded=0;orthogonalLoop=1;jettySize=auto;html=1;entryX=0;entryY=0.5;entryDx=0;entryDy=0;" parent="_9A46UjWHR56a_WUUn8J-4" source="McGuKTuxEj6wb3Da-vRc-4" target="rHKmbyzbA7fJzTo6jydG-52" edge="1">
          <mxGeometry relative="1" as="geometry" />
        </mxCell>
        <UserObject label="VALIDAÇÃO DAS INFORMAÇÕES" lucidchartObjectId="N0wKYOwpYnif" id="McGuKTuxEj6wb3Da-vRc-4">
          <mxCell style="html=1;whiteSpace=wrap;;whiteSpace=wrap;fontSize=11;fontColor=#333333;fontStyle=1;spacing=7;strokeOpacity=100;fillOpacity=72;absoluteArcSize=1;arcSize=7.199999999999999;strokeWidth=2;fillColor=#B266FF;rounded=1;gradientDirection=east;" parent="_9A46UjWHR56a_WUUn8J-4" vertex="1" zOrder="58">
            <mxGeometry x="478" y="111" width="110" height="77" as="geometry" />
          </mxCell>
        </UserObject>
        <UserObject label="MARKETING" lucidchartObjectId="s.uKQylt4AR4" id="xaDSNMkB_KKedi8a7gYI-2">
          <mxCell style="html=1;whiteSpace=wrap;;whiteSpace=wrap;fontSize=11;fontStyle=1;spacing=7;strokeOpacity=100;fillOpacity=72;absoluteArcSize=1;arcSize=7.199999999999999;strokeWidth=2;spacingLeft=0;glass=0;perimeterSpacing=0;fillColor=#B266FF;rounded=1;" vertex="1" zOrder="16" parent="_9A46UjWHR56a_WUUn8J-4">
            <mxGeometry y="111" width="110" height="77" as="geometry" />
          </mxCell>
        </UserObject>
        <mxCell id="_9A46UjWHR56a_WUUn8J-5" value="" style="group;fontStyle=1" parent="1" vertex="1" connectable="0">
          <mxGeometry x="71.5" y="-756" width="1055.5" height="210.75" as="geometry" />
        </mxCell>
        <mxCell id="VlEH_Ozh7a5a1OLnvY-m-18" style="edgeStyle=orthogonalEdgeStyle;rounded=0;orthogonalLoop=1;jettySize=auto;html=1;entryX=0;entryY=0.5;entryDx=0;entryDy=0;fontSize=11;strokeWidth=2;" parent="_9A46UjWHR56a_WUUn8J-5" source="rHKmbyzbA7fJzTo6jydG-12" target="rHKmbyzbA7fJzTo6jydG-25" edge="1">
          <mxGeometry relative="1" as="geometry" />
        </mxCell>
        <UserObject label="FRETISTA BAIXA APP" lucidchartObjectId="s.uKQylt4AR4" id="rHKmbyzbA7fJzTo6jydG-12">
          <mxCell style="html=1;whiteSpace=wrap;;whiteSpace=wrap;fontSize=11;fontStyle=1;spacing=7;strokeOpacity=100;fillOpacity=72;absoluteArcSize=1;arcSize=7.199999999999999;strokeWidth=2;spacingLeft=0;glass=0;perimeterSpacing=0;fillColor=#B266FF;rounded=1;" parent="_9A46UjWHR56a_WUUn8J-5" vertex="1" zOrder="16">
            <mxGeometry x="162.5" y="99.75" width="110" height="77" as="geometry" />
          </mxCell>
        </UserObject>
        <UserObject label="CADASTRO DO FRETISTA" lucidchartObjectId="O~uKVIkj0mk8" id="rHKmbyzbA7fJzTo6jydG-14">
          <mxCell style="html=1;whiteSpace=wrap;;whiteSpace=wrap;fontSize=11;fontStyle=1;spacing=7;strokeOpacity=100;fillOpacity=72;absoluteArcSize=1;arcSize=7.199999999999999;strokeWidth=2;spacingLeft=0;fillColor=#B266FF;rounded=1;gradientDirection=east;" parent="_9A46UjWHR56a_WUUn8J-5" vertex="1" zOrder="18">
            <mxGeometry x="343" y="45.75" width="110" height="77" as="geometry" />
          </mxCell>
        </UserObject>
        <mxCell id="lydl9CK-ZkPdSqsnDGM0-13" style="edgeStyle=orthogonalEdgeStyle;rounded=0;orthogonalLoop=1;jettySize=auto;html=1;entryX=0;entryY=0.5;entryDx=0;entryDy=0;strokeWidth=2;" parent="_9A46UjWHR56a_WUUn8J-5" source="rHKmbyzbA7fJzTo6jydG-12" target="rHKmbyzbA7fJzTo6jydG-14" edge="1">
          <mxGeometry relative="1" as="geometry" />
        </mxCell>
        <UserObject label="CADASTRO  CNH EAR*" lucidchartObjectId="navKEohJb9zn" id="rHKmbyzbA7fJzTo6jydG-15">
          <mxCell style="html=1;whiteSpace=wrap;;whiteSpace=wrap;fontSize=11;fontStyle=1;spacing=7;strokeOpacity=100;fillOpacity=72;absoluteArcSize=1;arcSize=7.199999999999999;strokeWidth=2;spacingLeft=0;rounded=1;gradientDirection=east;fillColor=#B266FF;" parent="_9A46UjWHR56a_WUUn8J-5" vertex="1" zOrder="19">
            <mxGeometry x="643" y="45.75" width="110" height="77" as="geometry" />
          </mxCell>
        </UserObject>
        <UserObject label="" lucidchartObjectId="uavKRuDH9f49" id="rHKmbyzbA7fJzTo6jydG-17">
          <mxCell style="html=1;jettySize=18;whiteSpace=wrap;fontSize=6;strokeWidth=2;arcSize=12;edgeStyle=orthogonalEdgeStyle;startArrow=none;;endArrow=block;endFill=1;;exitX=1.015;exitY=0.5;exitPerimeter=0;entryX=-0.015;entryY=0.5;entryPerimeter=0;spacingLeft=0;fillColor=#B266FF;curved=1;" parent="_9A46UjWHR56a_WUUn8J-5" source="rHKmbyzbA7fJzTo6jydG-14" target="rHKmbyzbA7fJzTo6jydG-24" edge="1">
            <mxGeometry x="148" y="48.75" width="100" height="100" as="geometry">
              <Array as="points" />
            </mxGeometry>
          </mxCell>
        </UserObject>
        <UserObject label="" lucidchartObjectId="1evKYmKw-Scp" id="rHKmbyzbA7fJzTo6jydG-18">
          <mxCell style="html=1;jettySize=18;whiteSpace=wrap;fontSize=6;strokeWidth=2;arcSize=12;edgeStyle=orthogonalEdgeStyle;startArrow=none;;endArrow=block;endFill=1;;exitX=1.015;exitY=0.5;exitPerimeter=0;entryX=-0.015;entryY=0.5;entryPerimeter=0;spacingLeft=0;fillColor=#B266FF;curved=1;" parent="_9A46UjWHR56a_WUUn8J-5" source="rHKmbyzbA7fJzTo6jydG-14" target="rHKmbyzbA7fJzTo6jydG-24" edge="1">
            <mxGeometry x="148" y="48.75" width="100" height="100" as="geometry">
              <Array as="points" />
            </mxGeometry>
          </mxCell>
        </UserObject>
        <UserObject label="" lucidchartObjectId="9evK0Tb6jr8o" id="rHKmbyzbA7fJzTo6jydG-19">
          <mxCell style="html=1;jettySize=18;whiteSpace=wrap;fontSize=6;strokeWidth=2;arcSize=12;edgeStyle=orthogonalEdgeStyle;startArrow=none;;endArrow=block;endFill=1;;exitX=1.015;exitY=0.5;exitPerimeter=0;spacingLeft=0;fillColor=#B266FF;curved=1;" parent="_9A46UjWHR56a_WUUn8J-5" source="rHKmbyzbA7fJzTo6jydG-15" target="rHKmbyzbA7fJzTo6jydG-49" edge="1">
            <mxGeometry x="148" y="48.75" width="100" height="100" as="geometry">
              <Array as="points" />
              <mxPoint x="693" y="74.75" as="targetPoint" />
            </mxGeometry>
          </mxCell>
        </UserObject>
        <UserObject label="FRETISTA APROVADO" lucidchartObjectId="egvKg269H9v_" id="rHKmbyzbA7fJzTo6jydG-23">
          <mxCell style="html=1;whiteSpace=wrap;;whiteSpace=wrap;fontSize=11;fontStyle=1;spacing=7;strokeOpacity=100;fillOpacity=72;absoluteArcSize=1;arcSize=7.199999999999999;strokeWidth=2;spacingLeft=0;fillColor=#B266FF;rounded=1;gradientDirection=east;" parent="_9A46UjWHR56a_WUUn8J-5" vertex="1" zOrder="25">
            <mxGeometry x="1108" y="45.75" width="110" height="77" as="geometry" />
          </mxCell>
        </UserObject>
        <mxCell id="lydl9CK-ZkPdSqsnDGM0-16" style="edgeStyle=orthogonalEdgeStyle;rounded=0;orthogonalLoop=1;jettySize=auto;html=1;entryX=0;entryY=0.5;entryDx=0;entryDy=0;strokeWidth=2;" parent="_9A46UjWHR56a_WUUn8J-5" source="rHKmbyzbA7fJzTo6jydG-24" target="rHKmbyzbA7fJzTo6jydG-15" edge="1">
          <mxGeometry relative="1" as="geometry" />
        </mxCell>
        <UserObject label="ANTECEDENTES CRIMINAIS" lucidchartObjectId="_vvKhey.0Mgs" id="rHKmbyzbA7fJzTo6jydG-24">
          <mxCell style="html=1;whiteSpace=wrap;;whiteSpace=wrap;fontSize=11;fontStyle=1;spacing=7;strokeOpacity=100;fillOpacity=72;absoluteArcSize=1;arcSize=7.199999999999999;strokeWidth=2;spacingLeft=0;rounded=1;fillColor=#B266FF;" parent="_9A46UjWHR56a_WUUn8J-5" vertex="1" zOrder="29">
            <mxGeometry x="496" y="45.75" width="110" height="77" as="geometry" />
          </mxCell>
        </UserObject>
        <UserObject label="CADASTRO DO VEÍCULO" lucidchartObjectId="J3vKeXsbpCR4" id="rHKmbyzbA7fJzTo6jydG-25">
          <mxCell style="html=1;whiteSpace=wrap;;whiteSpace=wrap;fontSize=11;fontStyle=1;spacing=7;strokeOpacity=100;fillOpacity=72;absoluteArcSize=1;arcSize=7.199999999999999;strokeWidth=2;spacingLeft=0;fillColor=#B266FF;rounded=1;gradientDirection=east;" parent="_9A46UjWHR56a_WUUn8J-5" vertex="1" zOrder="30">
            <mxGeometry x="343" y="150.75" width="110" height="77" as="geometry" />
          </mxCell>
        </UserObject>
        <UserObject label="DIMENSÕES DO VEÍCULO " lucidchartObjectId="85vKEyoe3eA9" id="rHKmbyzbA7fJzTo6jydG-26">
          <mxCell style="html=1;whiteSpace=wrap;;whiteSpace=wrap;fontSize=11;fontStyle=1;spacing=7;strokeOpacity=100;fillOpacity=72;absoluteArcSize=1;arcSize=7.199999999999999;strokeWidth=2;spacingLeft=0;rounded=1;fillColor=#B266FF;" parent="_9A46UjWHR56a_WUUn8J-5" vertex="1" zOrder="32">
            <mxGeometry x="496" y="151.25" width="110" height="77" as="geometry" />
          </mxCell>
        </UserObject>
        <UserObject label="" lucidchartObjectId="x6vKTH67jBZc" id="rHKmbyzbA7fJzTo6jydG-27">
          <mxCell style="html=1;jettySize=18;whiteSpace=wrap;fontSize=6;strokeWidth=2;arcSize=12;edgeStyle=orthogonalEdgeStyle;startArrow=none;;endArrow=block;endFill=1;;exitX=1.015;exitY=0.5;exitPerimeter=0;entryX=-0.015;entryY=0.5;entryPerimeter=0;spacingLeft=0;fillColor=#B266FF;curved=1;" parent="_9A46UjWHR56a_WUUn8J-5" source="rHKmbyzbA7fJzTo6jydG-25" target="rHKmbyzbA7fJzTo6jydG-26" edge="1">
            <mxGeometry x="298.5" y="53.75" width="100" height="100" as="geometry">
              <Array as="points" />
            </mxGeometry>
          </mxCell>
        </UserObject>
        <UserObject label="VALIDAÇÃO CNH EAR" lucidchartObjectId="yTwKNZ11kSDv" id="rHKmbyzbA7fJzTo6jydG-49">
          <mxCell style="html=1;whiteSpace=wrap;;whiteSpace=wrap;fontSize=11;fontStyle=1;spacing=7;strokeOpacity=100;fillOpacity=72;absoluteArcSize=1;arcSize=7.199999999999999;strokeWidth=2;spacingLeft=0;fillColor=#B266FF;rounded=1;" parent="_9A46UjWHR56a_WUUn8J-5" vertex="1" zOrder="55">
            <mxGeometry x="799" y="45.75" width="110" height="77" as="geometry" />
          </mxCell>
        </UserObject>
        <mxCell id="lydl9CK-ZkPdSqsnDGM0-27" style="edgeStyle=orthogonalEdgeStyle;rounded=0;orthogonalLoop=1;jettySize=auto;html=1;entryX=0;entryY=0.5;entryDx=0;entryDy=0;strokeWidth=2;fontSize=11;" parent="_9A46UjWHR56a_WUUn8J-5" source="rHKmbyzbA7fJzTo6jydG-21" target="rHKmbyzbA7fJzTo6jydG-23" edge="1">
          <mxGeometry relative="1" as="geometry" />
        </mxCell>
        <UserObject label="LIBERAÇÃO DE MOTORISTA" lucidchartObjectId="ifvKUUaz.t~0" id="rHKmbyzbA7fJzTo6jydG-21">
          <mxCell style="html=1;whiteSpace=wrap;;whiteSpace=wrap;fontSize=11;fontStyle=1;spacing=7;strokeOpacity=100;fillOpacity=72;absoluteArcSize=1;arcSize=7.199999999999999;strokeWidth=2;spacingLeft=0;fillColor=#B266FF;rounded=1;" parent="_9A46UjWHR56a_WUUn8J-5" vertex="1" zOrder="23">
            <mxGeometry x="952" y="45.75" width="110" height="77" as="geometry" />
          </mxCell>
        </UserObject>
        <mxCell id="2FagUGivekg9gJh4EhXs-12" style="edgeStyle=orthogonalEdgeStyle;orthogonalLoop=1;jettySize=auto;html=1;exitX=1;exitY=0.5;exitDx=0;exitDy=0;entryX=0;entryY=0.5;entryDx=0;entryDy=0;strokeWidth=2;fontSize=3;fillColor=#B266FF;curved=1;" parent="_9A46UjWHR56a_WUUn8J-5" source="rHKmbyzbA7fJzTo6jydG-49" target="rHKmbyzbA7fJzTo6jydG-21" edge="1">
          <mxGeometry relative="1" as="geometry" />
        </mxCell>
        <UserObject label="VALIDAÇÃO DO VEÍCULO" lucidchartObjectId="k7vKkOwz.Rf9" id="rHKmbyzbA7fJzTo6jydG-28">
          <mxCell style="html=1;whiteSpace=wrap;;whiteSpace=wrap;fontSize=11;fontStyle=1;spacing=7;strokeOpacity=100;fillOpacity=72;absoluteArcSize=1;arcSize=7.199999999999999;strokeWidth=2;spacingLeft=0;fillColor=#B266FF;rounded=1;" parent="_9A46UjWHR56a_WUUn8J-5" vertex="1" zOrder="34">
            <mxGeometry x="643" y="151.25" width="110" height="77" as="geometry" />
          </mxCell>
        </UserObject>
        <mxCell id="2FagUGivekg9gJh4EhXs-21" style="edgeStyle=orthogonalEdgeStyle;orthogonalLoop=1;jettySize=auto;html=1;exitX=1;exitY=0.5;exitDx=0;exitDy=0;entryX=0;entryY=0.5;entryDx=0;entryDy=0;strokeWidth=2;fontSize=3;fillColor=#B266FF;curved=1;" parent="_9A46UjWHR56a_WUUn8J-5" source="rHKmbyzbA7fJzTo6jydG-26" target="rHKmbyzbA7fJzTo6jydG-28" edge="1">
          <mxGeometry relative="1" as="geometry" />
        </mxCell>
        <mxCell id="q79SqbMXwKp4XREql4Sq-57" value="&lt;span&gt;&lt;span&gt;&lt;font&gt;DOWNLOAD E CADASTRO DO FRETISTA&lt;/font&gt;&lt;/span&gt;&lt;/span&gt;" style="text;html=1;align=center;verticalAlign=middle;resizable=0;points=[];autosize=1;fontFamily=Times New Roman;fontStyle=3;labelBackgroundColor=#FFFF33;strokeWidth=2;" parent="_9A46UjWHR56a_WUUn8J-5" vertex="1">
          <mxGeometry width="243" height="18" as="geometry" />
        </mxCell>
        <mxCell id="lydl9CK-ZkPdSqsnDGM0-25" style="edgeStyle=orthogonalEdgeStyle;rounded=0;orthogonalLoop=1;jettySize=auto;html=1;entryX=0.5;entryY=1;entryDx=0;entryDy=0;fontStyle=0;fontSize=6;strokeWidth=2;" parent="_9A46UjWHR56a_WUUn8J-5" source="rHKmbyzbA7fJzTo6jydG-32" target="rHKmbyzbA7fJzTo6jydG-23" edge="1">
          <mxGeometry relative="1" as="geometry" />
        </mxCell>
        <UserObject label="VEÍCULO APROVADO" lucidchartObjectId="plwK9rW.XIJ7" id="rHKmbyzbA7fJzTo6jydG-32">
          <mxCell style="html=1;whiteSpace=wrap;;whiteSpace=wrap;fontSize=11;fontStyle=1;spacing=7;strokeOpacity=100;fillOpacity=72;absoluteArcSize=1;arcSize=7.199999999999999;strokeWidth=2;spacingLeft=0;fillColor=#B266FF;rounded=1;" parent="_9A46UjWHR56a_WUUn8J-5" vertex="1" zOrder="38">
            <mxGeometry x="799" y="151.75" width="110" height="77" as="geometry" />
          </mxCell>
        </UserObject>
        <UserObject label="" lucidchartObjectId="RkwKlg2rD4S-" id="lydl9CK-ZkPdSqsnDGM0-17">
          <mxCell style="html=1;jettySize=18;whiteSpace=wrap;fontSize=6;strokeWidth=2;arcSize=12;edgeStyle=orthogonalEdgeStyle;startArrow=none;;endArrow=block;endFill=1;;entryX=-0.015;entryY=0.5;entryPerimeter=0;spacingLeft=0;fillColor=#B266FF;curved=1;" parent="_9A46UjWHR56a_WUUn8J-5" source="rHKmbyzbA7fJzTo6jydG-28" target="rHKmbyzbA7fJzTo6jydG-32" edge="1">
            <mxGeometry x="298.5" y="53.75" width="100" height="100" as="geometry">
              <Array as="points" />
              <mxPoint x="753" y="181.54999999999995" as="sourcePoint" />
              <mxPoint x="910.8499999999999" y="180.75" as="targetPoint" />
            </mxGeometry>
          </mxCell>
        </UserObject>
        <mxCell id="xaDSNMkB_KKedi8a7gYI-3" style="edgeStyle=orthogonalEdgeStyle;rounded=0;orthogonalLoop=1;jettySize=auto;html=1;entryX=0;entryY=0.5;entryDx=0;entryDy=0;" edge="1" parent="_9A46UjWHR56a_WUUn8J-5" source="xaDSNMkB_KKedi8a7gYI-1" target="rHKmbyzbA7fJzTo6jydG-12">
          <mxGeometry relative="1" as="geometry" />
        </mxCell>
        <UserObject label="MARKETING" lucidchartObjectId="s.uKQylt4AR4" id="xaDSNMkB_KKedi8a7gYI-1">
          <mxCell style="html=1;whiteSpace=wrap;;whiteSpace=wrap;fontSize=11;fontStyle=1;spacing=7;strokeOpacity=100;fillOpacity=72;absoluteArcSize=1;arcSize=7.199999999999999;strokeWidth=2;spacingLeft=0;glass=0;perimeterSpacing=0;fillColor=#B266FF;rounded=1;" vertex="1" zOrder="16" parent="_9A46UjWHR56a_WUUn8J-5">
            <mxGeometry y="99.75" width="110" height="77" as="geometry" />
          </mxCell>
        </UserObject>
        <mxCell id="VlEH_Ozh7a5a1OLnvY-m-2" style="edgeStyle=orthogonalEdgeStyle;rounded=0;orthogonalLoop=1;jettySize=auto;html=1;entryX=0.5;entryY=0;entryDx=0;entryDy=0;" parent="1" source="HwygtU4Qd-4MaiJghH9O-1" target="2FagUGivekg9gJh4EhXs-42" edge="1">
          <mxGeometry relative="1" as="geometry" />
        </mxCell>
        <mxCell id="HwygtU4Qd-4MaiJghH9O-1" value="- Informação do fretista (histórico)&lt;br&gt;1) de onde é&lt;br&gt;2) viagens realizadas&amp;nbsp;&lt;br&gt;3) avaliações anteriores&amp;nbsp;" style="rounded=1;whiteSpace=wrap;html=1;arcSize=7;" parent="1" vertex="1">
          <mxGeometry x="1119.5" y="-126" width="141" height="138" as="geometry" />
        </mxCell>
        <mxCell id="AEDt5X0542Bi35OXiFF1-22" style="edgeStyle=orthogonalEdgeStyle;rounded=0;orthogonalLoop=1;jettySize=auto;html=1;entryX=0;entryY=0.5;entryDx=0;entryDy=0;fontSize=11;" parent="1" source="rHKmbyzbA7fJzTo6jydG-54" target="AEDt5X0542Bi35OXiFF1-20" edge="1">
          <mxGeometry relative="1" as="geometry" />
        </mxCell>
        <UserObject label="FRETISTA ABRE O APP" lucidchartObjectId="d~wKO_Ew.pH2" id="rHKmbyzbA7fJzTo6jydG-54">
          <mxCell style="html=1;whiteSpace=wrap;;whiteSpace=wrap;fontSize=11;fontColor=#333333;fontStyle=1;spacing=7;strokeOpacity=100;fillOpacity=72;absoluteArcSize=1;arcSize=7.199999999999999;fillColor=#B266FF;strokeWidth=2;rounded=1;gradientDirection=east;" parent="1" vertex="1" zOrder="61">
            <mxGeometry x="71.5" y="-135" width="110" height="77" as="geometry" />
          </mxCell>
        </UserObject>
        <mxCell id="r3LLLDUIKtX1h_sw6sCI-5" style="edgeStyle=orthogonalEdgeStyle;rounded=0;orthogonalLoop=1;jettySize=auto;html=1;exitX=1;exitY=0.5;exitDx=0;exitDy=0;entryX=0;entryY=0.5;entryDx=0;entryDy=0;fontSize=11;" parent="1" source="2FagUGivekg9gJh4EhXs-64" target="2FagUGivekg9gJh4EhXs-66" edge="1">
          <mxGeometry relative="1" as="geometry" />
        </mxCell>
        <UserObject label="FRETISTA ONLINE" lucidchartObjectId="5~wK7thumvDX" id="2FagUGivekg9gJh4EhXs-64">
          <mxCell style="html=1;whiteSpace=wrap;;whiteSpace=wrap;fontSize=11;fontColor=#333333;fontStyle=1;spacing=7;strokeOpacity=100;fillOpacity=72;absoluteArcSize=1;arcSize=7.199999999999999;strokeWidth=2;align=center;fillColor=#B266FF;rounded=1;gradientDirection=east;" parent="1" vertex="1" zOrder="64">
            <mxGeometry x="369" y="-135" width="110" height="77" as="geometry" />
          </mxCell>
        </UserObject>
        <UserObject label="FRETISTA AGUARDA SOLICITAÇÕES" lucidchartObjectId="5~wK7thumvDX" id="2FagUGivekg9gJh4EhXs-66">
          <mxCell style="html=1;whiteSpace=wrap;;whiteSpace=wrap;fontSize=11;fontColor=#333333;fontStyle=1;spacing=7;strokeOpacity=100;fillOpacity=72;absoluteArcSize=1;arcSize=7.199999999999999;strokeWidth=2;align=center;fillColor=#B266FF;rounded=1;gradientDirection=east;" parent="1" vertex="1" zOrder="64">
            <mxGeometry x="519" y="-135" width="110" height="77" as="geometry" />
          </mxCell>
        </UserObject>
        <mxCell id="q79SqbMXwKp4XREql4Sq-58" value="&lt;span style=&quot;font-size: 15px&quot;&gt;LOGIN DO FRETISTA&amp;nbsp;&lt;/span&gt;" style="text;html=1;align=center;verticalAlign=middle;resizable=0;points=[];autosize=1;fontFamily=Times New Roman;fontStyle=3;labelBackgroundColor=#FFFF33;strokeWidth=2;" parent="1" vertex="1">
          <mxGeometry x="72" y="-171" width="162" height="18" as="geometry" />
        </mxCell>
        <mxCell id="AEDt5X0542Bi35OXiFF1-21" style="edgeStyle=orthogonalEdgeStyle;rounded=0;orthogonalLoop=1;jettySize=auto;html=1;entryX=0;entryY=0.5;entryDx=0;entryDy=0;fontSize=11;" parent="1" source="AEDt5X0542Bi35OXiFF1-20" target="2FagUGivekg9gJh4EhXs-64" edge="1">
          <mxGeometry relative="1" as="geometry" />
        </mxCell>
        <UserObject label="PRONTO PARA RODAR?" lucidchartObjectId="5~wK7thumvDX" id="AEDt5X0542Bi35OXiFF1-20">
          <mxCell style="html=1;whiteSpace=wrap;;whiteSpace=wrap;fontSize=11;fontColor=#333333;fontStyle=1;spacing=7;strokeOpacity=100;fillOpacity=72;absoluteArcSize=1;arcSize=7.199999999999999;strokeWidth=2;align=center;fillColor=#B266FF;rounded=1;gradientDirection=east;" parent="1" vertex="1" zOrder="64">
            <mxGeometry x="221.5" y="-135" width="110" height="77" as="geometry" />
          </mxCell>
        </UserObject>
        <mxCell id="r3LLLDUIKtX1h_sw6sCI-9" style="edgeStyle=orthogonalEdgeStyle;rounded=0;orthogonalLoop=1;jettySize=auto;html=1;exitX=1;exitY=0.5;exitDx=0;exitDy=0;fontSize=11;" parent="1" source="2FagUGivekg9gJh4EhXs-72" edge="1">
          <mxGeometry relative="1" as="geometry">
            <mxPoint x="369" y="342" as="targetPoint" />
          </mxGeometry>
        </mxCell>
        <UserObject label="CLIENTE AVALIA OPÇÕES" lucidchartObjectId="d~wKO_Ew.pH2" id="2FagUGivekg9gJh4EhXs-72">
          <mxCell style="html=1;whiteSpace=wrap;;whiteSpace=wrap;fontSize=11;fontColor=#333333;fontStyle=1;spacing=7;strokeOpacity=100;fillOpacity=72;absoluteArcSize=1;arcSize=7.199999999999999;fillColor=#B266FF;strokeWidth=2;rounded=1;gradientDirection=east;" parent="1" vertex="1" zOrder="61">
            <mxGeometry x="222.5" y="303.5" width="110" height="77" as="geometry" />
          </mxCell>
        </UserObject>
        <mxCell id="VlEH_Ozh7a5a1OLnvY-m-14" style="edgeStyle=orthogonalEdgeStyle;rounded=0;orthogonalLoop=1;jettySize=auto;html=1;exitX=1;exitY=0.5;exitDx=0;exitDy=0;entryX=0;entryY=0.5;entryDx=0;entryDy=0;fontSize=11;" parent="1" source="2FagUGivekg9gJh4EhXs-73" target="2FagUGivekg9gJh4EhXs-77" edge="1">
          <mxGeometry relative="1" as="geometry" />
        </mxCell>
        <UserObject label="CONFIRMAR FRETE" lucidchartObjectId="5~wK7thumvDX" id="2FagUGivekg9gJh4EhXs-73">
          <mxCell style="html=1;whiteSpace=wrap;;whiteSpace=wrap;fontSize=11;fontColor=#333333;fontStyle=1;spacing=7;strokeOpacity=100;fillOpacity=72;absoluteArcSize=1;arcSize=7.199999999999999;fillColor=#B266FF;strokeWidth=2;align=center;rounded=1;gradientDirection=east;" parent="1" vertex="1" zOrder="64">
            <mxGeometry x="522.5" y="305.5" width="110" height="77" as="geometry" />
          </mxCell>
        </UserObject>
        <UserObject label="AGUARDAR MOTORISTA" lucidchartObjectId="5~wK7thumvDX" id="2FagUGivekg9gJh4EhXs-77">
          <mxCell style="html=1;whiteSpace=wrap;;whiteSpace=wrap;fontSize=11;fontColor=#333333;fontStyle=1;spacing=7;strokeOpacity=100;fillOpacity=72;absoluteArcSize=1;arcSize=7.199999999999999;fillColor=#B266FF;strokeWidth=2;align=center;rounded=1;gradientDirection=east;" parent="1" vertex="1" zOrder="64">
            <mxGeometry x="683" y="305.5" width="110" height="77" as="geometry" />
          </mxCell>
        </UserObject>
        <mxCell id="r3LLLDUIKtX1h_sw6sCI-13" style="edgeStyle=orthogonalEdgeStyle;rounded=0;orthogonalLoop=1;jettySize=auto;html=1;exitX=1;exitY=0.5;exitDx=0;exitDy=0;entryX=0;entryY=0.5;entryDx=0;entryDy=0;fontSize=11;" parent="1" source="q79SqbMXwKp4XREql4Sq-3" target="2FagUGivekg9gJh4EhXs-73" edge="1">
          <mxGeometry relative="1" as="geometry" />
        </mxCell>
        <UserObject label="CLIENTE COMEÇA A SOLICITAR FRETE" lucidchartObjectId="d~wKO_Ew.pH2" id="q79SqbMXwKp4XREql4Sq-3">
          <mxCell style="html=1;whiteSpace=wrap;;whiteSpace=wrap;fontSize=11;fontColor=#333333;fontStyle=1;spacing=7;strokeOpacity=100;fillOpacity=72;absoluteArcSize=1;arcSize=7.199999999999999;fillColor=#B266FF;strokeWidth=2;rounded=1;" parent="1" vertex="1" zOrder="61">
            <mxGeometry x="372.5" y="305.5" width="110" height="77" as="geometry" />
          </mxCell>
        </UserObject>
        <mxCell id="q79SqbMXwKp4XREql4Sq-81" value="&lt;span&gt;&lt;font style=&quot;font-size: 15px&quot;&gt;CLIENTE SOLICITA&lt;br&gt;&lt;/font&gt;&lt;/span&gt;" style="text;html=1;align=center;verticalAlign=middle;resizable=0;points=[];autosize=1;fontFamily=Times New Roman;fontStyle=3;labelBackgroundColor=#FFFF33;strokeWidth=2;" parent="1" vertex="1">
          <mxGeometry x="58" y="261" width="162" height="18" as="geometry" />
        </mxCell>
        <mxCell id="r3LLLDUIKtX1h_sw6sCI-7" style="edgeStyle=orthogonalEdgeStyle;rounded=0;orthogonalLoop=1;jettySize=auto;html=1;exitX=1;exitY=0.5;exitDx=0;exitDy=0;fontSize=11;" parent="1" source="VlEH_Ozh7a5a1OLnvY-m-9" target="2FagUGivekg9gJh4EhXs-72" edge="1">
          <mxGeometry relative="1" as="geometry">
            <mxPoint x="216" y="342" as="targetPoint" />
          </mxGeometry>
        </mxCell>
        <UserObject label="CLIENTE VER OPÇÕES DE FRETE" lucidchartObjectId="d~wKO_Ew.pH2" id="VlEH_Ozh7a5a1OLnvY-m-9">
          <mxCell style="html=1;whiteSpace=wrap;;whiteSpace=wrap;fontSize=11;fontColor=#333333;fontStyle=1;spacing=7;strokeOpacity=100;fillOpacity=72;absoluteArcSize=1;arcSize=7.199999999999999;fillColor=#B266FF;strokeWidth=2;rounded=1;gradientDirection=east;" parent="1" vertex="1" zOrder="61">
            <mxGeometry x="72.5" y="303.5" width="110" height="77" as="geometry" />
          </mxCell>
        </UserObject>
        <mxCell id="McGuKTuxEj6wb3Da-vRc-5" style="edgeStyle=orthogonalEdgeStyle;rounded=0;orthogonalLoop=1;jettySize=auto;html=1;" parent="1" source="rHKmbyzbA7fJzTo6jydG-37" edge="1">
          <mxGeometry relative="1" as="geometry">
            <mxPoint x="549.5" y="-318.5000000000002" as="targetPoint" />
          </mxGeometry>
        </mxCell>
        <UserObject label="NO APP" lucidchartObjectId="egvKg269H9v_" id="q79SqbMXwKp4XREql4Sq-67">
          <mxCell style="html=1;whiteSpace=wrap;;whiteSpace=wrap;fontSize=10;fontStyle=1;spacing=7;strokeOpacity=100;fillOpacity=72;absoluteArcSize=1;arcSize=7.199999999999999;strokeWidth=1;spacingLeft=0;fillColor=#B266FF;rounded=1;" parent="1" vertex="1" zOrder="25">
            <mxGeometry x="1189" y="-900" width="86" height="42" as="geometry" />
          </mxCell>
        </UserObject>
        <UserObject label="FORA DO APP" lucidchartObjectId="egvKg269H9v_" id="q79SqbMXwKp4XREql4Sq-68">
          <mxCell style="html=1;whiteSpace=wrap;;whiteSpace=wrap;fontSize=10;fontStyle=1;spacing=7;strokeOpacity=100;fillOpacity=72;absoluteArcSize=1;arcSize=7.199999999999999;strokeWidth=1;spacingLeft=0;rounded=1;fillColor=#9999FF;" parent="1" vertex="1" zOrder="25">
            <mxGeometry x="1189" y="-834" width="86" height="36" as="geometry" />
          </mxCell>
        </UserObject>
        <mxCell id="xaDSNMkB_KKedi8a7gYI-4" style="edgeStyle=orthogonalEdgeStyle;rounded=0;orthogonalLoop=1;jettySize=auto;html=1;exitX=1;exitY=0.5;exitDx=0;exitDy=0;" edge="1" parent="1" source="xaDSNMkB_KKedi8a7gYI-2">
          <mxGeometry relative="1" as="geometry">
            <mxPoint x="234" y="-318" as="targetPoint" />
          </mxGeometry>
        </mxCell>
      </root>
    </mxGraphModel>
  </diagram>
</mxfile>
